#!OML:ASF X:\für Bonn\!DataBase\2005_08_12_Daniel\c3d\Daniel.ASF
:FULLY-SPECIFIED
:DEGREES
1423
root 5.35147 17.2403 -23.5109 -187.124 33.1916 -177.514
lowerback 10.8628 -3.19324 2.69589
upperback 2.31035 -3.71651 1.05871
thorax -3.77067 -1.78938 0.102139
lowerneck -0.893605 -2.10128 -6.64569
upperneck 13.2117 -3.02863 8.23271
head 4.29946 -1.21469 3.52972
rclavicle -1.00697e-014 -1.78906e-014
rhumerus -44.9448 -31.3697 -66.6101
rradius 12.6014
rwrist 37.6909
rhand -16.7891 17.7992
rfingers 7.12502
rthumb 9.43887 -11.9694
lclavicle -1.00697e-014 -1.78906e-014
lhumerus -78.2757 61.7365 21.022
lradius 14.2741
lwrist -68.3125
lhand -9.7471 -6.99896
lfingers 7.12502
lthumb 16.2272 22.3419
rfemur -8.93929 7.41415 34.8564
rtibia 35.6489
rfoot -15.3803 -0.345864
rtoes 1.19322
lfemur -13.9241 6.27394 -7.05003
ltibia 81.3788
lfoot -4.52864 -7.9956
ltoes -13.0707
1424
root 5.45292 17.2528 -23.6456 -187.245 33.9161 -177.7
lowerback 10.8562 -3.00276 2.52872
upperback 2.29341 -3.49341 0.953969
thorax -3.77651 -1.68061 0.0550691
lowerneck -0.746124 -2.13865 -6.68148
upperneck 13.2943 -3.08699 8.30252
head 4.30543 -1.23973 3.55723
rclavicle -2.96748e-014 9.93923e-015
rhumerus -44.2827 -29.8825 -68.1019
rradius 13.0221
rwrist 36.5458
rhand -16.6602 17.7488
rfingers 7.12502
rthumb 9.56323 -12.0141
lclavicle -2.96748e-014 9.93923e-015
lhumerus -77.0719 60.7598 22.3489
lradius 14.3587
lwrist -66.1961
lhand -9.90152 -6.80781
lfingers 7.12502
lthumb 16.0785 22.5451
rfemur -8.07831 7.49518 34.8446
rtibia 35.4601
rfoot -15.559 0.297872
rtoes 1.44686
lfemur -15.0933 6.25062 -7.5675
ltibia 81.0821
lfoot -5.47256 -7.45235
ltoes -12.2701
1425
root 5.55397 17.2623 -23.7799 -187.362 34.6529 -177.868
lowerback 10.8312 -2.81348 2.38765
upperback 2.29561 -3.2686 0.84756
thorax -3.7541 -1.57039 -0.00986928
lowerneck -0.598385 -2.17141 -6.68126
upperneck 13.3416 -3.13807 8.34511
head 4.29932 -1.26205 3.57018
rclavicle 2.22949e-014 -7.55382e-015
rhumerus -43.6138 -28.2311 -69.6711
rradius 13.4627
rwrist 35.1802
rhand -16.5101 17.8111
rfingers 7.12502
rthumb 9.70804 -11.9452
lclavicle 2.22949e-014 -7.55382e-015
lhumerus -76.6493 59.9818 22.7081
lradius 14.3631
lwrist -64.6108
lhand -10.0746 -6.59188
lfingers 7.12502
lthumb 15.9118 22.7744
rfemur -7.22327 7.5847 34.8439
rtibia 35.3042
rfoot -15.773 0.948411
rtoes 1.58002
lfemur -16.1954 6.18971 -8.07313
ltibia 80.6221
lfoot -6.35161 -6.817
ltoes -11.4274
1426
root 5.64696 17.2705 -23.9122 -187.455 35.5707 -177.995
lowerback 10.8975 -2.57627 2.34508
upperback 2.26878 -2.96466 0.752864
thorax -3.81526 -1.42228 -0.123734
lowerneck -0.448542 -2.19966 -6.73477
upperneck 13.3986 -3.18244 8.40092
head 4.29629 -1.28293 3.59674
rclavicle 6.68165e-014 1.25234e-014
rhumerus -43.082 -26.7057 -71.0403
rradius 13.9128
rwrist 33.9743
rhand -16.3389 17.8792
rfingers 7.12502
rthumb 9.87316 -11.8693
lclavicle 6.68165e-014 1.25234e-014
lhumerus -75.6563 59.0479 23.7803
lradius 14.4204
lwrist -62.6902
lhand -10.2468 -6.26117
lfingers 7.12502
lthumb 15.746 23.1183
rfemur -6.39498 7.68566 34.8437
rtibia 35.162
rfoot -15.884 1.75347
rtoes 1.78659
lfemur -17.227 6.29039 -8.49445
ltibia 80.0326
lfoot -7.27395 -6.29459
ltoes -11.2745
1427
root 5.74273 17.2822 -24.0448 -187.509 36.47 -178.08
lowerback 10.927 -2.34511 2.32135
upperback 2.24906 -2.66666 0.676552
thorax -3.84811 -1.27686 -0.230538
lowerneck -0.25852 -2.22143 -6.75623
upperneck 13.4075 -3.21607 8.41739
head 4.27019 -1.30096 3.60597
rclavicle -9.93644e-014 8.94531e-015
rhumerus -42.5782 -25.0856 -72.4192
rradius 14.4108
rwrist 32.5562
rhand -16.1636 17.9842
rfingers 7.12502
rthumb 10.0424 -11.7562
lclavicle -9.93644e-014 8.94531e-015
lhumerus -74.5365 58.0878 25.0143
lradius 14.4781
lwrist -60.8532
lhand -10.4435 -5.91136
lfingers 7.12502
lthumb 15.5565 23.4829
rfemur -5.56957 7.81237 34.8761
rtibia 34.9872
rfoot -15.9614 2.48574
rtoes 2.03573
lfemur -18.2244 6.39342 -8.86805
ltibia 79.3014
lfoot -8.25013 -5.84346
ltoes -11.7702
1428
root 5.83959 17.2956 -24.1786 -187.576 37.3865 -178.168
lowerback 10.9379 -2.11264 2.30681
upperback 2.26146 -2.36504 0.602274
thorax -3.83673 -1.12848 -0.342594
lowerneck -0.121484 -2.23712 -6.81571
upperneck 13.3998 -3.24325 8.46624
head 4.24842 -1.3164 3.63137
rclavicle -6.05051e-015 -2.5842e-015
rhumerus -42.011 -23.2546 -73.9078
rradius 14.9257
rwrist 30.8699
rhand -16.0129 18.1538
rfingers 7.12502
rthumb 10.1877 -11.5795
lclavicle -6.05051e-015 -2.5842e-015
lhumerus -72.7139 56.9438 27.1385
lradius 14.6036
lwrist -58.6215
lhand -10.5828 -5.50239
lfingers 7.12502
lthumb 15.4223 23.9023
rfemur -4.70549 7.90869 34.8896
rtibia 34.7689
rfoot -15.9662 3.25524
rtoes 2.22117
lfemur -19.1692 6.48727 -9.2599
ltibia 78.4412
lfoot -9.18727 -5.34233
ltoes -12.606
1429
root 5.93743 17.3086 -24.313 -187.613 38.3231 -178.215
lowerback 10.9627 -1.87568 2.32658
upperback 2.25099 -2.05223 0.552109
thorax -3.85604 -0.975388 -0.449544
lowerneck 0.0266205 -2.25432 -6.901
upperneck 13.4191 -3.27031 8.50051
head 4.23334 -1.33314 3.65695
rclavicle -5.66319e-014 -3.18055e-015
rhumerus -41.517 -21.0199 -75.5599
rradius 15.5952
rwrist 28.6423
rhand -15.831 18.2303
rfingers 7.12502
rthumb 10.3632 -11.4943
lclavicle -5.66319e-014 -3.18055e-015
lhumerus -71.1579 55.7646 29.0319
lradius 14.7625
lwrist -56.5994
lhand -10.723 -5.1564
lfingers 7.12502
lthumb 15.2873 24.2586
rfemur -3.8327 7.99057 34.9192
rtibia 34.5234
rfoot -15.9577 4.03621
rtoes 2.33667
lfemur -20.0528 6.5258 -9.61083
ltibia 77.4383
lfoot -10.0727 -4.79678
ltoes -13.5313
1430
root 6.03545 17.3197 -24.4485 -187.673 39.2303 -178.28
lowerback 10.978 -1.65646 2.34178
upperback 2.25865 -1.76371 0.48987
thorax -3.8512 -0.833652 -0.563774
lowerneck 0.209953 -2.2579 -6.9249
upperneck 13.3805 -3.2763 8.47867
head 4.19156 -1.34162 3.65526
rclavicle 1.47396e-014 3.37934e-015
rhumerus -41.0896 -18.7168 -77.1933
rradius 16.3275
rwrist 26.3382
rhand -15.7085 18.2624
rfingers 7.12502
rthumb 10.4813 -11.4563
lclavicle 1.47396e-014 3.37934e-015
lhumerus -69.8435 54.6391 30.6621
lradius 14.9206
lwrist -54.7681
lhand -10.8386 -4.8604
lfingers 7.12502
lthumb 15.176 24.5631
rfemur -2.93561 8.09002 34.9252
rtibia 34.2538
rfoot -15.907 4.75953
rtoes 2.68415
lfemur -20.822 6.42697 -9.98805
ltibia 76.2631
lfoot -10.9053 -4.2212
ltoes -14.0725
1431
root 6.13184 17.3287 -24.5835 -187.723 40.2056 -178.349
lowerback 11.0177 -1.40931 2.37677
upperback 2.25957 -1.43477 0.431587
thorax -3.86511 -0.672265 -0.690224
lowerneck 0.344532 -2.272 -6.99605
upperneck 13.3571 -3.29811 8.49083
head 4.16498 -1.35772 3.67122
rclavicle -2.33619e-014 3.97569e-015
rhumerus -40.7878 -16.6003 -78.6313
rradius 17.0921
rwrist 24.1551
rhand -15.6287 18.2971
rfingers 7.12502
rthumb 10.5584 -11.4177
lclavicle -2.33619e-014 3.97569e-015
lhumerus -68.7687 53.5621 32.0301
lradius 15.0883
lwrist -53.2167
lhand -10.9429 -4.72004
lfingers 7.12502
lthumb 15.0755 24.711
rfemur -2.03776 8.26879 34.9203
rtibia 33.963
rfoot -15.8057 5.50008
rtoes 3.10528
lfemur -21.4821 6.27661 -10.3369
ltibia 74.9147
lfoot -11.6138 -3.69044
ltoes -13.6583
1432
root 6.22933 17.338 -24.7197 -187.768 41.1701 -178.391
lowerback 11.0695 -1.18005 2.4435
upperback 2.26213 -1.12503 0.37426
thorax -3.88394 -0.520566 -0.830914
lowerneck 0.473864 -2.2719 -7.03332
upperneck 13.3298 -3.29951 8.48055
head 4.13573 -1.3633 3.6752
rclavicle 8.39492e-014 -2.08724e-014
rhumerus -40.5797 -14.5293 -79.9746
rradius 17.8909
rwrist 22.0813
rhand -15.5561 18.3072
rfingers 7.12502
rthumb 10.6284 -11.404
lclavicle 8.39492e-014 -2.08724e-014
lhumerus -68.2671 52.679 32.7204
lradius 15.2807
lwrist -52.1324
lhand -11.0093 -4.73023
lfingers 7.12502
lthumb 15.0115 24.7056
rfemur -1.0997 8.45132 34.9222
rtibia 33.6154
rfoot -15.6827 6.20534
rtoes 3.44844
lfemur -22.0058 6.01256 -10.639
ltibia 73.3881
lfoot -12.221 -3.18168
ltoes -12.8648
1433
root 6.33135 17.348 -24.8571 -187.798 42.083 -178.437
lowerback 11.0788 -0.966948 2.49745
upperback 2.26101 -0.839904 0.320953
thorax -3.88226 -0.38102 -0.957513
lowerneck 0.602409 -2.26959 -7.06622
upperneck 13.2911 -3.29504 8.43639
head 4.10229 -1.368 3.66793
rclavicle 1.99188e-014 3.18055e-015
rhumerus -40.4605 -12.6898 -81.1166
rradius 18.6701
rwrist 20.277
rhand -15.5768 18.2703
rfingers 7.12502
rthumb 10.6084 -11.4419
lclavicle 1.99188e-014 3.18055e-015
lhumerus -68.0122 51.8982 33.0941
lradius 15.4175
lwrist -51.3498
lhand -11.1457 -4.8757
lfingers 7.12502
lthumb 14.8802 24.5699
rfemur -0.12031 8.6465 34.9267
rtibia 33.1755
rfoot -15.5306 6.83199
rtoes 3.93465
lfemur -22.4554 5.65583 -10.9159
ltibia 71.7167
lfoot -12.7021 -2.67783
ltoes -12.0271
1434
root 6.4366 17.3612 -24.9959 -187.834 42.9665 -178.467
lowerback 11.0835 -0.764719 2.55012
upperback 2.27443 -0.568499 0.273709
thorax -3.86209 -0.247478 -1.07522
lowerneck 0.740121 -2.26696 -7.06672
upperneck 13.2098 -3.28992 8.3752
head 4.05373 -1.37299 3.64963
rclavicle 2.908e-014 -5.1684e-015
rhumerus -40.339 -11.2189 -82.0134
rradius 19.3449
rwrist 18.9038
rhand -15.5881 18.1823
rfingers 7.12502
rthumb 10.5975 -11.5305
lclavicle 2.908e-014 -5.1684e-015
lhumerus -68.002 51.2418 33.1708
lradius 15.555
lwrist -50.8131
lhand -11.2812 -5.11558
lfingers 7.12502
lthumb 14.7496 24.3396
rfemur 0.964723 8.85768 34.9448
rtibia 32.5922
rfoot -15.3756 7.42597
rtoes 4.3466
lfemur -22.7975 5.27211 -11.13
ltibia 69.9057
lfoot -13.1996 -2.23551
ltoes -11.5279
